<svg version="1.1" viewBox="0 0 515 319" xmlns="http://www.w3.org/2000/svg">
 <path d="m367.9 24.1h93.1v32.8h-29.1v234.1h-34.9v-234.1h-29.1zm-51.9 0h34v266.9h-34zm-122 0h34l18.6 67.9 16.4-67.9h34.9l-29.9 133 30 133.9h-35.9l-15.6-67.1-16.6 67.1h-35.9l30-134.9zm-110 0h92v32.8h-58.9v84h58.9v31.9h-59v86.2h59v31.9h-92z" fill="#c1272d"/>
 <path class="st1" d="m448.7 125h22l31 33.4-31 31.6h-22v-3.9l29-27.6-29-27.5zm33 33.5-30 28.5h18l28.1-28.5-28.1-30.5h-19zm-417.7-33.5h-22l-31 33.4 31 31.6h22v-3.9l-29-27.6 29-27.5zm-33 33.5 30 28.5h-18l-28.1-28.5 28.1-30.5h19z" fill="#bebfb9"/>
</svg>
